<?xml version="1.0" standalone="no"?>
<!DOCTYPE svg PUBLIC "-//W3C//DTD SVG 20010904//EN"
 "http://www.w3.org/TR/2001/REC-SVG-20010904/DTD/svg10.dtd">
<svg version="1.0" xmlns="http://www.w3.org/2000/svg"
 width="1920.000000pt" height="1920.000000pt" viewBox="0 0 1920.000000 1920.000000"
 preserveAspectRatio="xMidYMid meet">
<metadata>
Created by potrace 1.11, written by Peter Selinger 2001-2013
</metadata>
<g transform="translate(0.000000,1920.000000) scale(0.100000,-0.100000)"
fill="#000000" stroke="none">
<path d="M4187 19051 c-60 -17 -215 -87 -272 -123 -210 -135 -457 -400 -695
-748 -13 -19 -27 -37 -30 -40 -3 -3 -14 -18 -25 -34 -11 -16 -29 -41 -40 -56
-346 -477 -552 -819 -815 -1355 -163 -331 -181 -371 -272 -580 -171 -391 -328
-862 -372 -1115 -2 -14 -16 -83 -30 -155 -14 -71 -28 -148 -31 -170 -3 -22 -7
-47 -10 -55 -2 -8 -7 -37 -10 -65 -4 -27 -8 -63 -11 -80 -2 -16 -6 -52 -9 -80
-4 -27 -8 -57 -10 -65 -2 -8 -6 -42 -9 -75 -4 -33 -9 -80 -11 -105 -8 -62 -13
-129 -20 -235 -3 -49 -8 -100 -10 -113 -16 -93 -24 -766 -12 -1026 l6 -138
-31 41 c-69 94 -156 111 -476 95 -360 -18 -570 -140 -723 -419 -55 -101 -128
-314 -143 -420 -4 -23 -8 -52 -11 -65 -2 -13 -7 -46 -10 -74 -3 -28 -7 -67
-10 -86 -2 -19 -7 -60 -10 -90 -10 -94 -16 -133 -31 -200 -51 -232 -54 -254
-50 -318 10 -158 94 -284 311 -471 113 -97 227 -183 330 -247 77 -49 384 -204
402 -204 5 0 27 -9 49 -19 121 -58 364 -113 446 -100 79 13 171 22 203 20 94
-4 281 -117 511 -306 54 -44 102 -79 108 -78 10 3 27 -25 145 -242 41 -76 327
-563 393 -670 262 -424 766 -1178 895 -1340 4 -5 51 -68 103 -140 126 -174
233 -319 240 -325 3 -3 18 -23 35 -45 16 -22 33 -44 37 -50 5 -5 29 -37 54
-70 167 -221 715 -902 745 -925 3 -3 25 -27 49 -55 151 -177 575 -611 720
-737 36 -31 81 -71 100 -87 19 -17 38 -31 41 -31 4 0 9 -7 13 -15 5 -15 -3
-15 -114 0 -150 21 -452 24 -532 5 -79 -19 -106 -36 -173 -109 -33 -36 -103
-109 -155 -162 -214 -217 -239 -246 -390 -450 -50 -68 -100 -135 -111 -149
-40 -49 -117 -166 -143 -217 -52 -104 -86 -359 -65 -493 11 -71 86 -222 140
-284 67 -76 164 -141 279 -186 108 -43 161 -53 300 -54 163 -1 256 7 435 38
263 47 764 236 1145 433 213 110 378 193 468 234 134 62 193 89 342 159 85 40
178 83 206 96 l51 23 89 -46 c130 -66 452 -227 504 -250 25 -12 79 -37 120
-56 41 -19 145 -65 230 -102 220 -94 209 -90 300 -125 30 -12 64 -26 75 -31
49 -20 237 -90 445 -165 268 -95 835 -255 1095 -308 17 -4 39 -8 50 -10 179
-37 457 -90 555 -106 69 -12 137 -23 151 -25 14 -3 43 -7 65 -10 35 -4 107
-16 127 -21 4 -1 26 -2 49 -3 l43 -1 -35 -18 c-157 -83 -405 -219 -485 -267
-41 -24 -89 -90 -110 -150 -18 -52 -24 -186 -12 -257 4 -21 9 -55 12 -75 3
-21 10 -60 15 -88 5 -27 12 -63 15 -80 13 -75 18 -97 46 -205 44 -166 89 -297
159 -466 129 -307 194 -419 309 -535 217 -216 485 -323 806 -323 124 0 149 3
221 27 137 45 183 84 354 297 63 80 156 195 205 257 244 303 294 412 375 813
17 85 43 200 57 255 77 306 81 389 28 554 -5 15 -4 21 3 17 6 -3 37 -9 69 -12
32 -3 69 -7 83 -10 14 -2 45 -7 70 -9 25 -3 56 -8 70 -10 14 -3 48 -7 75 -11
28 -3 53 -11 57 -18 6 -8 8 -8 8 1 0 7 9 10 22 8 19 -4 55 -9 216 -31 17 -2
49 -7 70 -10 20 -3 55 -8 77 -10 22 -2 56 -7 75 -10 19 -3 51 -7 70 -9 43 -5
101 -13 150 -20 20 -3 57 -8 81 -10 24 -2 60 -7 79 -10 19 -3 52 -8 73 -10 20
-3 52 -7 70 -9 17 -3 52 -7 76 -10 25 -3 63 -8 85 -10 39 -5 90 -12 181 -22
22 -3 56 -7 75 -9 19 -3 61 -7 92 -11 55 -5 93 -11 93 -14 0 0 27 -3 60 -5 84
-6 148 -12 235 -20 41 -4 81 -8 88 -8 6 0 12 -3 12 -6 0 -3 22 -6 49 -6 27 1
82 -3 123 -7 78 -8 172 -15 226 -17 24 -1 31 -5 26 -13 -6 -10 -5 -10 8 0 15
12 68 14 68 2 0 -3 9 -6 20 -6 11 0 20 4 20 9 0 4 5 5 11 1 6 -4 50 -9 97 -11
48 -2 92 -9 98 -14 8 -7 14 -6 19 1 4 7 12 7 26 0 13 -8 19 -7 19 0 0 6 5 8
11 5 6 -4 43 -9 82 -11 138 -7 165 -12 186 -33 25 -25 73 -27 95 -6 24 24 92
16 140 -17 23 -15 47 -28 54 -28 7 0 10 -5 6 -12 -4 -7 -3 -8 5 -4 6 4 18 2
26 -4 8 -7 15 -9 15 -5 0 4 6 2 14 -4 16 -14 116 -20 145 -9 12 4 30 23 41 41
l20 34 113 2 c61 1 130 4 152 5 83 7 172 18 220 26 28 5 62 12 77 14 140 23
405 114 536 182 193 102 343 242 399 374 39 92 83 270 110 435 2 17 8 46 13
65 9 36 16 70 30 155 35 219 -50 488 -259 813 -36 56 -73 113 -81 127 -107
176 -556 784 -636 860 -51 49 -133 153 -126 160 4 5 2 6 -3 2 -15 -8 -149 128
-141 142 4 6 1 9 -7 5 -18 -6 -41 21 -31 37 4 8 3 9 -5 5 -15 -10 -43 13 -34
27 3 5 2 7 -4 4 -11 -7 -95 67 -88 77 3 3 2 4 -2 1 -3 -3 -15 2 -25 11 -15 14
-16 20 -5 33 10 14 10 14 -3 4 -13 -9 -23 -5 -58 24 -23 19 -39 40 -36 45 4 6
2 8 -3 5 -14 -9 -84 52 -76 66 3 6 1 7 -6 3 -6 -4 -17 -1 -25 6 -7 8 -32 29
-54 48 -23 18 -38 38 -35 43 3 6 1 7 -6 3 -7 -5 -27 6 -50 26 -169 149 -656
490 -971 680 -202 121 -432 248 -645 356 -89 45 -375 182 -380 182 -2 0 -39
16 -82 36 -43 20 -130 59 -193 86 -63 27 -128 55 -145 63 -16 7 -59 25 -95 39
-36 15 -76 32 -90 38 -14 6 -34 14 -45 19 -215 90 -262 109 -272 109 -7 0 -13
4 -13 8 0 5 -6 9 -12 9 -11 1 -316 122 -383 152 -11 5 -42 17 -68 27 -31 11
-45 20 -38 27 8 8 -108 250 -219 452 -15 28 -58 109 -95 180 -37 72 -76 146
-86 165 -10 19 -59 119 -108 222 -117 245 -178 338 -310 469 -155 155 -306
263 -516 367 -115 57 -195 86 -280 101 -109 20 -239 32 -360 35 -220 6 -472
-66 -698 -198 -91 -54 -101 -77 -101 -226 -1 -129 8 -237 28 -367 3 -21 9 -55
12 -77 6 -43 11 -68 20 -108 3 -16 4 -28 2 -28 -2 0 -104 33 -228 74 -194 64
-628 205 -990 321 -58 19 -130 41 -160 50 -30 9 -136 41 -235 71 -99 30 -187
57 -195 59 -8 2 -15 4 -15 5 0 1 -7 3 -15 5 -8 1 -35 9 -60 16 -25 7 -47 13
-50 14 -3 1 -25 7 -50 15 -25 7 -54 15 -65 17 -10 2 -22 7 -25 11 -3 4 -16 8
-30 10 -14 1 -32 5 -40 9 -8 3 -19 7 -25 7 -35 5 -75 19 -75 27 0 6 -4 8 -10
4 -8 -5 -129 29 -155 43 -5 3 -20 7 -33 8 -14 2 -32 6 -41 10 -9 4 -18 8 -21
9 -3 1 -33 9 -67 19 -35 10 -60 22 -57 27 3 5 -1 7 -8 4 -7 -3 -51 9 -98 26
-47 17 -113 40 -147 51 -34 11 -61 24 -58 27 2 4 -4 7 -13 8 -24 2 -42 7 -83
25 -20 9 -46 19 -59 23 -45 14 -139 62 -134 68 4 3 -2 5 -13 4 -11 0 -35 6
-54 15 -19 9 -52 23 -74 33 -129 56 -253 120 -248 128 3 6 1 7 -5 3 -7 -4 -24
-1 -39 7 -16 8 -53 27 -83 42 -64 32 -152 80 -195 105 -16 10 -52 30 -80 45
-94 51 -190 110 -193 117 -2 5 -8 8 -12 8 -23 0 -611 408 -650 450 -3 3 -39
31 -80 62 -42 32 -84 65 -95 75 -11 10 -43 36 -70 58 -61 48 -241 202 -350
299 -89 80 -482 469 -566 561 -171 189 -495 593 -611 765 -10 14 -54 75 -98
135 -44 61 -108 151 -142 200 -34 50 -113 162 -177 250 -63 88 -126 176 -140
196 -14 21 -78 111 -142 200 -156 221 -202 290 -202 305 0 7 -4 11 -8 9 -6 -4
-16 19 -16 35 1 3 -12 18 -26 34 -21 22 -24 31 -15 38 10 6 9 8 -3 8 -10 0
-31 29 -55 78 -21 42 -41 79 -44 82 -3 3 -10 16 -16 30 -7 14 -24 50 -38 80
-61 124 -129 326 -186 550 -52 208 -82 364 -84 437 -1 22 -4 39 -8 36 -5 -2
-8 11 -9 29 0 18 -3 42 -5 53 -13 56 -13 75 -1 68 9 -5 9 -3 0 9 -7 8 -10 18
-6 21 3 4 2 7 -4 7 -6 0 -10 14 -9 31 1 16 -1 32 -6 35 -4 3 -3 14 3 26 8 16
8 19 -1 13 -9 -6 -11 0 -8 24 2 17 0 31 -5 31 -5 0 -4 6 2 14 8 10 9 16 1 21
-15 9 -13 58 3 50 6 -4 4 0 -7 9 -10 8 -16 22 -13 30 3 8 3 17 0 20 -7 7 -11
36 -17 122 -2 34 -7 67 -10 73 -4 6 -7 26 -5 44 1 17 -2 40 -6 50 -4 9 -4 28
-1 42 4 14 3 25 -2 25 -4 0 -8 9 -9 20 -1 11 4 20 10 20 9 0 9 2 1 8 -6 4 -15
41 -18 82 -4 41 -9 91 -11 110 -12 93 -5 439 10 525 1 11 6 36 9 55 3 19 8 46
10 60 2 14 10 48 16 75 6 28 14 60 16 72 2 11 24 82 49 156 92 276 218 532
450 907 74 120 152 194 336 320 63 43 119 83 126 89 7 6 15 11 18 11 15 0 199
145 245 192 119 124 139 284 46 366 -41 35 -101 39 -199 13z"/>
<path d="M17986 5278 c3 -5 10 -6 15 -3 13 9 11 12 -6 12 -8 0 -12 -4 -9 -9z"/>
<path d="M18110 5166 c0 -2 7 -7 16 -10 8 -3 12 -2 9 4 -6 10 -25 14 -25 6z"/>
<path d="M16716 1922 c-3 -5 1 -9 9 -9 8 0 12 4 9 9 -3 4 -7 8 -9 8 -2 0 -6
-4 -9 -8z"/>
</g>
</svg>
